/* XPM */
static char *_4c5191829784f63ecb300073385df1cQLxZ8YpZMOOeVMyB[] = {
/* columns rows colors chars-per-pixel */
"16 16 7 1 ",
"  c black",
". c #5C3110",
"X c #D32F2F",
"o c #7CB342",
"O c #00C853",
"+ c #FA9E1E",
"@ c #FFBE6E",
/* pixels */
"oooo        oooo",
"ooo ++++++++ ooo",
"oo +++@+++@++ oo",
"o ++@+++@+++++ o",
"o +@++@+++@+@+ o",
"o ++++++++++++ o",
"o              o",
" XXXXXXXXXXXXXX ",
"                ",
" .............. ",
"                ",
" OOOOOOOOOOOOOO ",
"o O OO  OO OO  o",
"o  +  ++  +  + o",
"o ++++++++++++ o",
"oo            oo"
};
