/* XPM */
static char *_f22a261a5204d32fd2b1c7d0ede0772yWp0RpbkZCcXQZrN[] = {
/* columns rows colors chars-per-pixel */
"16 16 2 1 ",
"  c #607D8B",
". c gray62",
/* pixels */
"....... ........",
"....... ........",
"....... ........",
"......  ........",
"  ...   ........",
"..    . ......  ",
".......   .... .",
"...... ..  ..  .",
"...... ....  ...",
"...... .........",
"...... .........",
".....  ......   ",
"     .        ..",
"...... ...  ....",
"......   .......",
".......  ......."
};
