/* XPM */
static char *bf838d3d4d5742448eaa3e2bc07e7d77d4Z1x1S0irDbDkUK[] = {
/* columns rows colors chars-per-pixel */
"16 16 2 1 ",
"  c black",
". c #81D4FA",
/* pixels */
".. .... .... ...",
".. .... .... ...",
"                ",
".. .... .... ...",
".. .... .... ...",
"                ",
".. .... .... ...",
".. .... .... ...",
"                ",
".. .... .... ...",
".. .... .... ...",
"                ",
".. .... .... ...",
".. .... .... ...",
"                ",
".. .... .... ..."
};
