/* XPM */
static char *_0b14087741b4f1db3c56f688eeba708wMmYJXkJLoTTPOO4[] = {
/* columns rows colors chars-per-pixel */
"16 16 3 1 ",
"  c None",
". c black",
"X c #795548",
/* pixels */
"                ",
"    XXXXXXXXX   ",
"    X        XX ",
"    X         X ",
"   XX         X ",
"   X          X ",
"   X          X ",
"  XX          X ",
"  X           X ",
"  X      .... X ",
"  X         . X ",
"  X           X ",
"  X           X ",
"  X           X ",
"  X           X ",
"  X           X "
};
