/* XPM */
static char *b269d1231ab54b85bb90836acec50d65wyMRWO3OF66bpCJx[] = {
/* columns rows colors chars-per-pixel */
"16 16 2 1 ",
"  c #428519",
". c #5CC71A",
/* pixels */
"................",
".......... .. ..",
"......... ..  ..",
".......... . ...",
"........... ....",
". ..............",
". ....  ........",
".  .. ..........",
"..    ...... ...",
"...  .. .... ...",
"...  ..  ... ...",
".... ... ..  ...",
"........  . ....",
".........   ....",
".........  .....",
"................"
};
