/* XPM */
static char *bcabbe14fced4d28a12bfef54c36087bbsnc45lNt1T51ViJ[] = {
/* columns rows colors chars-per-pixel */
"16 16 2 1 ",
"  c None",
". c #FFEB3B",
/* pixels */
"    .......     ",
"   ..  . ....   ",
"  ..  ....  ..  ",
" .. ........ .. ",
" .  .  . . .  ..",
" .  .  . .     .",
"..   . . .     .",
".    .......   .",
".      . . .   .",
".      . . .   .",
".      . . .   .",
"..     . ...  ..",
" .  .. . ..  .. ",
" ..  ..... ...  ",
"   ..  . ...    ",
"     ......     "
};
