/* XPM */
static char *result[] = {
/* columns rows colors chars-per-pixel */
"16 16 8 1 ",
"  c black",
". c #582900",
"X c #5C3110",
"o c #6B3C17",
"O c #8A5B3A",
"+ c #AB7F5E",
"@ c #5CC71A",
"# c #FFEA00",
/* pixels */
"@@            @@",
"@@ .......... @@",
"@@ .oooooooo. @@",
"@@ .oXXXXXXo. @@",
"@@ .oOOOOOOo. @@",
"@@ .oOOOOOOo. @@",
"@@ .o++++++o. @@",
"@@ .oooooooo. @@",
"@@ .ooooooo#. @@",
"@@ .oXXXXXXo. @@",
"@@ .oOOOOOOo. @@",
"@@ .oOOOOOOo. @@",
"@@ .o++++++o. @@",
"@@ .oooooooo. @@",
"@@ .......... @@",
"@@            @@"
};
