/* XPM */
static char *_e278bf7eeb54786b5a91167ca6f4011x6MMvMdrsb1QoYaV[] = {
/* columns rows colors chars-per-pixel */
"16 16 2 1 ",
"  c None",
". c black",
/* pixels */
"     .....      ",
"    ..   ..     ",
"    .     ..    ",
" .   .     .    ",
" .   ...  ..  . ",
" ..    ....   . ",
"  ..    .     . ",
"   ............ ",
"        .       ",
"        .       ",
"        .       ",
"       ...      ",
"      .. ..     ",
"     ..    .    ",
"     .      .   ",
"     .      ..  "
};
