/* XPM */
static char *e5ff5fcd14594738bebf9efaf512845cQLlVFNuUhTHpLKaq[] = {
/* columns rows colors chars-per-pixel */
"16 16 4 1 ",
"  c black",
". c #C62828",
"X c #5CC71A",
"o c #3F51B5",
/* pixels */
"XXXX....XXXXXXXX",
"XX.X. ..XXXX.XXX",
"XX.X....XXXX.XXX",
"XX..XXX.XXX..XXX",
"XXXXo.....oXXXXX",
"XXXXoo...ooXXXXX",
"XXXXXX...XXXXXXX",
"XXXXXX...XXXXXXX",
"XXXXXXo.oXXXXXXX",
"XXXXXXo.oXXXXXXX",
"XXXXXX...XXXXXXX",
"XXXXXXoXoXXXXXXX",
"XXXXXooXooXXXXXX",
"XX.XXoXXXoXX.XXX",
"XXX..XXXXX..XXXX",
"XXXXXXXXXXXXXXXX"
};
